<?xml version="1.0" standalone="no"?>
<!DOCTYPE svg PUBLIC "-//W3C//DTD SVG 20010904//EN"
 "http://www.w3.org/TR/2001/REC-SVG-20010904/DTD/svg10.dtd">
<svg version="1.0" xmlns="http://www.w3.org/2000/svg"
 width="600.000000pt" height="381.000000pt" viewBox="0 0 600.000000 381.000000"
 preserveAspectRatio="xMidYMid meet">

<g transform="translate(0.000000,381.000000) scale(0.100000,-0.100000)"
fill="#000000" stroke="none">
<path d="M2095 3290 c-3 -6 1 -7 9 -4 18 7 21 14 7 14 -6 0 -13 -4 -16 -10z"/>
<path d="M2130 3278 c0 -4 14 -8 30 -8 17 0 30 2 30 4 0 2 -13 6 -30 8 -16 3
-30 1 -30 -4z"/>
<path d="M2207 3269 c7 -7 15 -10 18 -7 3 3 -2 9 -12 12 -14 6 -15 5 -6 -5z"/>
<path d="M2075 3248 c-7 -17 -10 -72 -7 -125 2 -34 6 -43 20 -43 14 0 15 2 2
10 -13 8 -12 10 3 10 10 0 15 5 12 10 -4 6 -11 8 -16 5 -5 -4 -9 -1 -9 4 0 6
5 11 11 11 6 0 9 6 6 14 -3 8 1 17 9 20 21 8 7 27 -14 19 -9 -3 -1 9 18 27 19
18 27 27 18 20 -14 -10 -18 -10 -18 0 0 7 -7 10 -15 6 -8 -3 -15 -1 -15 3 0 5
6 12 13 14 9 4 9 6 -1 6 -7 1 -15 -5 -17 -11z"/>
<path d="M2110 3249 c0 -5 5 -7 10 -4 6 3 10 8 10 11 0 2 -4 4 -10 4 -5 0 -10
-5 -10 -11z"/>
<path d="M2280 3200 c8 -5 20 -10 25 -10 6 0 3 5 -5 10 -8 5 -19 10 -25 10 -5
0 -3 -5 5 -10z"/>
<path d="M2330 3176 c0 -2 7 -7 16 -10 8 -3 12 -2 9 4 -6 10 -25 14 -25 6z"/>
<path d="M3884 3149 c-3 -6 0 -18 9 -26 13 -13 14 -12 10 11 -6 29 -9 31 -19
15z"/>
<path d="M2370 3145 c0 -2 10 -10 23 -16 20 -11 21 -11 8 4 -13 16 -31 23 -31
12z"/>
<path d="M3549 3113 c-13 -15 -12 -15 9 -4 23 12 28 21 13 21 -5 0 -15 -7 -22
-17z"/>
<path d="M2348 3103 c7 -3 16 -2 19 1 4 3 -2 6 -13 5 -11 0 -14 -3 -6 -6z"/>
<path d="M2423 3085 c0 -8 4 -12 9 -9 5 3 17 0 26 -7 13 -11 12 -8 -2 9 -22
26 -33 28 -33 7z"/>
<path d="M3885 3090 c-3 -5 -1 -10 4 -10 6 0 11 5 11 10 0 6 -2 10 -4 10 -3 0
-8 -4 -11 -10z"/>
<path d="M3520 3065 c-7 -8 -8 -15 -2 -15 5 0 15 7 22 15 7 8 8 15 2 15 -5 0
-15 -7 -22 -15z"/>
<path d="M2076 3028 c4 -24 11 -51 15 -60 5 -9 9 -26 9 -37 0 -24 18 -37 31
-24 6 6 5 20 -2 39 -7 16 -11 34 -9 39 3 11 3 39 1 68 -1 11 -9 17 -26 17 -24
0 -25 -2 -19 -42z"/>
<path d="M3880 3061 c0 -6 5 -13 10 -16 6 -3 10 1 10 9 0 9 -4 16 -10 16 -5 0
-10 -4 -10 -9z"/>
<path d="M2466 3039 c6 -11 41 -12 47 -1 3 4 -8 7 -24 8 -15 1 -26 -3 -23 -7z"/>
<path d="M3200 3030 c0 -5 5 -10 10 -10 6 0 10 5 10 10 0 6 -4 10 -10 10 -5 0
-10 -4 -10 -10z"/>
<path d="M3435 3029 c-4 -6 -5 -12 -2 -15 2 -3 7 2 10 11 7 17 1 20 -8 4z"/>
<path d="M3495 3030 c3 -5 12 -7 20 -3 21 7 19 13 -6 13 -11 0 -18 -4 -14 -10z"/>
<path d="M3170 2995 c0 -14 4 -25 9 -25 4 0 6 -10 4 -22 -4 -23 11 -57 21 -47
3 3 7 21 9 39 3 27 -1 40 -19 58 l-24 23 0 -26z"/>
<path d="M2390 3003 c-119 -13 -259 -88 -359 -193 -187 -196 -220 -500 -79
-739 47 -79 151 -180 228 -220 36 -18 76 -44 90 -56 14 -13 38 -29 55 -38 34
-17 34 -2 8 -305 l-16 -193 32 -29 c19 -18 29 -34 25 -44 -4 -10 -1 -16 9 -16
8 0 18 7 21 16 4 11 15 15 36 12 29 -4 29 -4 34 56 8 77 26 394 26 441 0 19 5
35 10 35 6 0 10 -8 10 -17 0 -11 3 -14 8 -7 5 8 15 8 35 -1 15 -6 24 -15 20
-20 -5 -5 0 -4 9 4 9 7 14 19 11 27 -3 8 -8 13 -10 10 -3 -3 -11 1 -18 7 -17
16 30 47 117 76 74 25 167 81 212 130 35 37 49 39 63 8 9 -18 7 -32 -8 -63
-10 -21 -18 -44 -19 -50 0 -6 -20 -22 -45 -35 -53 -28 -67 -50 -27 -42 54 10
73 10 78 1 4 -6 10 -5 15 3 6 10 9 11 9 2 0 -17 15 -16 33 2 13 13 16 13 21
-2 6 -14 8 -14 24 0 12 11 22 13 32 7 8 -5 24 -10 34 -10 18 0 18 1 1 20 -10
11 -24 20 -31 20 -19 0 -54 40 -54 62 0 10 -4 18 -10 18 -5 0 -6 7 -3 17 4 11
3 14 -5 9 -13 -8 -17 26 -4 38 4 4 7 11 7 15 0 17 65 80 109 106 33 19 44 31
37 38 -7 7 -19 7 -38 -2 -16 -7 -25 -9 -21 -5 10 9 -29 37 -41 30 -5 -3 3 29
17 72 22 65 26 96 26 202 1 132 -9 175 -66 283 -13 23 -23 49 -23 57 0 8 -7
15 -15 15 -8 0 -15 8 -15 17 0 9 -4 20 -9 25 -5 5 -6 2 -1 -7 6 -12 5 -13 -5
-3 -11 10 -11 16 3 31 16 18 16 19 -5 17 -13 -2 -22 -8 -20 -15 1 -7 -20 7
-47 31 -38 33 -50 51 -51 74 -1 26 -3 27 -10 10 -8 -19 -9 -19 -9 -1 -1 15 -4
16 -16 6 -13 -10 -15 -9 -15 9 0 11 -4 21 -10 21 -5 0 -10 7 -10 15 0 22 -18
18 -25 -5 -8 -24 -13 -24 -62 -5 -79 30 -191 40 -303 28z m17 -90 c-6 16 1 17
91 14 53 -3 106 -7 117 -10 11 -3 28 -6 37 -6 9 -1 24 -8 32 -17 9 -8 16 -12
16 -8 0 3 7 1 15 -6 8 -7 15 -17 15 -23 0 -6 -7 -2 -16 9 -15 19 -16 19 -9 -1
12 -33 11 -50 -2 -48 -9 2 -11 -7 -7 -32 3 -23 1 -35 -7 -35 -9 0 -9 -3 1 -15
6 -8 9 -18 6 -24 -4 -5 0 -15 7 -23 8 -7 12 -18 10 -23 -2 -6 6 -11 17 -11 24
0 24 -1 4 38 -15 28 -15 30 0 25 12 -5 16 0 17 21 2 65 6 112 11 117 9 10 103
-65 145 -116 121 -144 160 -348 102 -523 -29 -85 -44 -105 -78 -100 -18 3 -33
-2 -45 -15 -10 -10 -25 -17 -35 -14 -35 9 -32 -17 3 -38 20 -12 36 -25 36 -29
0 -25 -141 -127 -198 -145 -14 -4 -29 -2 -38 6 -11 9 -18 9 -26 1 -9 -9 -7
-12 8 -13 14 0 10 -5 -13 -15 -39 -17 -44 -28 -7 -14 14 6 30 8 35 4 5 -3 9 0
9 5 0 6 7 11 15 11 32 0 215 112 215 132 0 5 4 7 9 4 5 -4 11 0 14 6 2 7 8 10
12 6 14 -13 -91 -104 -161 -140 -198 -102 -400 -96 -593 17 -36 21 -59 41 -55
47 4 6 2 8 -4 4 -15 -9 -115 93 -108 111 3 8 2 11 -4 8 -11 -7 -29 25 -23 43
3 6 9 9 15 6 6 -4 5 -10 -3 -15 -11 -7 -9 -10 8 -15 13 -4 32 -21 43 -39 12
-19 37 -48 58 -66 20 -18 36 -37 34 -42 -1 -5 2 -6 7 -3 5 4 26 -5 46 -18 45
-31 144 -64 210 -71 l50 -5 -55 14 c-30 8 -68 18 -85 24 l-30 9 25 7 c14 4 45
11 70 16 44 9 44 9 -15 5 -59 -4 -60 -4 -27 11 45 20 42 38 -5 31 -25 -4 -33
-3 -22 3 8 5 34 10 56 11 22 2 50 11 62 20 20 17 20 18 4 28 -23 13 -8 14 35
1 28 -8 32 -7 22 5 -6 8 -19 11 -27 8 -11 -4 -14 -2 -9 5 4 8 -3 11 -22 9 -16
-1 -28 -7 -25 -13 4 -12 -38 -34 -67 -34 -28 0 -51 -11 -44 -21 3 -5 -3 -9
-13 -10 -10 0 -27 -3 -38 -6 -63 -17 -87 -8 -147 56 -101 107 -148 225 -148
371 0 144 46 269 133 366 35 38 48 46 57 37 7 -6 19 -9 28 -6 9 4 13 2 9 -4
-4 -6 4 -13 18 -15 31 -6 31 -1 1 37 l-23 29 23 18 c40 32 134 70 159 65 14
-2 22 -1 20 4 -10 15 21 16 34 0 13 -15 13 -15 8 2z"/>
<path d="M2580 2890 c-13 -9 -11 -13 10 -29 17 -14 27 -16 32 -8 8 13 0 29
-12 22 -5 -3 -10 1 -12 10 -2 10 -7 12 -18 5z"/>
<path d="M2640 2872 c0 -18 5 -32 10 -32 6 0 8 11 4 28 -10 39 -14 40 -14 4z"/>
<path d="M2430 2872 c0 -24 -15 -30 -23 -9 -4 9 -6 9 -6 0 -1 -7 12 -19 28
-28 l30 -15 -11 33 c-14 41 -18 45 -18 19z"/>
<path d="M2533 2842 c0 -12 5 -22 9 -22 11 0 10 12 -2 30 -7 12 -9 10 -7 -8z"/>
<path d="M2406 2821 c-4 -5 -2 -12 3 -15 5 -4 12 -2 15 3 4 5 2 12 -3 15 -5 4
-12 2 -15 -3z"/>
<path d="M2436 2795 c-4 -12 -1 -16 11 -13 18 3 21 20 5 26 -5 1 -12 -4 -16
-13z"/>
<path d="M2355 2780 c3 -5 8 -10 11 -10 2 0 4 5 4 10 0 6 -5 10 -11 10 -5 0
-7 -4 -4 -10z"/>
<path d="M2490 2771 c0 -10 30 -24 37 -17 3 2 -5 9 -16 16 -12 6 -21 7 -21 1z"/>
<path d="M2105 2730 c0 -20 5 -27 19 -26 28 1 30 21 4 38 -22 15 -23 14 -23
-12z"/>
<path d="M2290 2751 c0 -5 7 -11 15 -15 8 -3 15 -1 15 3 0 5 -7 11 -15 15 -8
3 -15 1 -15 -3z"/>
<path d="M2892 2705 c-7 -14 -12 -34 -11 -43 0 -9 7 1 15 22 16 45 13 59 -4
21z"/>
<path d="M2511 2617 c-29 -7 -55 -22 -75 -45 -17 -19 -40 -43 -51 -55 -19 -21
-28 -57 -15 -57 4 0 7 -17 7 -38 0 -87 71 -153 170 -158 48 -3 52 -2 21 5 -47
10 -80 32 -114 77 -34 44 -41 132 -12 161 23 22 30 13 15 -17 -16 -33 -6 -113
17 -139 11 -12 39 -32 64 -46 40 -22 46 -23 65 -10 12 8 28 15 37 15 9 0 33
26 54 58 22 32 35 46 31 32 -3 -14 -9 -34 -12 -45 -3 -11 -17 -32 -31 -47 -27
-29 -20 -37 11 -13 11 7 36 17 58 20 21 4 39 7 39 8 0 27 -37 166 -54 203 -38
83 -120 117 -225 91z m123 -53 c9 -8 16 -22 16 -29 0 -17 -27 -45 -44 -45 -7
0 -21 9 -31 20 -17 18 -17 21 -1 45 19 29 38 32 60 9z"/>
<path d="M2156 2336 c3 -7 -6 -20 -19 -29 -13 -9 -30 -22 -38 -29 -8 -8 -22
-17 -32 -21 -12 -4 -17 -15 -15 -29 2 -13 -4 -28 -12 -35 -12 -10 -12 -12 -1
-13 11 0 11 -3 1 -15 -14 -17 -7 -19 40 -15 29 2 53 20 27 20 -21 0 -22 15 -1
32 53 43 62 56 57 82 -4 17 1 34 12 46 17 19 17 20 -3 20 -14 0 -20 -5 -16
-14z m-66 -136 c0 -5 -2 -10 -4 -10 -3 0 -8 5 -11 10 -3 6 -1 10 4 10 6 0 11
-4 11 -10z"/>
<path d="M2610 2290 c-8 -5 -10 -10 -5 -10 6 0 17 5 25 10 8 5 11 10 5 10 -5
0 -17 -5 -25 -10z"/>
<path d="M2340 2236 c0 -2 7 -7 16 -10 8 -3 12 -2 9 4 -6 10 -25 14 -25 6z"/>
<path d="M2816 2224 c-3 -9 -12 -14 -20 -11 -10 4 -12 0 -9 -14 3 -10 9 -19
14 -19 10 0 32 50 26 57 -3 2 -7 -4 -11 -13z"/>
<path d="M2269 2213 c-1 -5 -1 -12 0 -17 1 -5 -5 -6 -14 -3 -17 7 -21 -8 -5
-18 6 -4 8 -10 5 -14 -2 -5 7 -6 20 -3 28 5 44 22 22 22 -8 0 -17 7 -21 15 -3
8 -1 15 4 15 6 0 10 -3 10 -8 0 -4 9 -13 21 -20 12 -8 18 -9 14 -3 -3 6 -2 11
4 11 5 0 13 -4 16 -10 3 -5 21 -10 38 -9 27 1 23 3 -25 17 -31 9 -60 20 -64
25 -4 4 -11 7 -16 7 -4 0 -9 -3 -9 -7z"/>
<path d="M2856 2145 c-16 -12 -17 -15 -4 -15 9 0 18 7 22 15 7 18 6 18 -18 0z"/>
<path d="M2365 2130 c-3 -5 1 -10 9 -10 9 0 16 -4 16 -10 0 -5 -5 -10 -12 -10
-6 0 -8 -3 -5 -7 8 -7 -11 -33 -25 -33 -5 0 -7 4 -4 9 3 4 -13 8 -35 8 -22 0
-42 -4 -45 -8 -3 -5 9 -9 25 -9 17 0 31 -5 31 -11 0 -16 101 0 123 19 17 16
17 16 -2 24 -12 4 -28 5 -36 2 -10 -4 -13 -2 -10 8 7 18 -20 44 -30 28z m45
-54 c0 -2 -7 -7 -16 -10 -8 -3 -12 -2 -9 4 6 10 25 14 25 6z"/>
<path d="M2423 2125 c0 -7 6 -11 14 -8 7 3 13 6 13 8 0 2 -6 5 -13 8 -8 3 -14
-1 -14 -8z"/>
<path d="M2255 2111 c-6 -11 13 -26 22 -17 4 3 1 6 -6 6 -7 0 -9 5 -6 10 3 6
4 10 1 10 -3 0 -7 -4 -11 -9z"/>
<path d="M2830 2110 c0 -5 12 -10 28 -9 24 0 25 1 7 9 -27 12 -35 12 -35 0z"/>
<path d="M2615 2000 c-11 -5 -14 -9 -7 -9 6 -1 12 -10 12 -22 0 -12 4 -17 11
-14 6 4 8 14 5 22 -6 14 5 13 52 -4 6 -3 12 0 12 6 0 6 -10 11 -23 11 -13 0
-27 4 -32 9 -6 5 -19 5 -30 1z"/>
<path d="M2725 1990 c-3 -5 1 -10 10 -10 9 0 13 5 10 10 -3 6 -8 10 -10 10 -2
0 -7 -4 -10 -10z"/>
<path d="M2530 1930 l-35 -7 37 -2 c20 0 40 4 43 9 7 11 7 11 -45 0z"/>
<path d="M2438 1913 c7 -3 16 -2 19 1 4 3 -2 6 -13 5 -11 0 -14 -3 -6 -6z"/>
<path d="M2685 1900 c-3 -5 3 -10 14 -10 11 0 23 5 26 10 3 6 -3 10 -14 10
-11 0 -23 -4 -26 -10z"/>
<path d="M2540 1840 c-23 -7 -23 -8 -3 -9 12 -1 25 4 28 9 3 6 5 10 3 9 -2 -1
-14 -5 -28 -9z"/>
<path d="M3065 2929 c7 -35 24 -47 21 -13 -2 15 -8 30 -14 32 -7 2 -9 -6 -7
-19z"/>
<path d="M3231 2934 c0 -11 3 -14 6 -6 3 7 2 16 -1 19 -3 4 -6 -2 -5 -13z"/>
<path d="M3129 2926 c8 -10 9 -16 1 -21 -5 -3 -10 -11 -10 -17 0 -7 6 -6 15 2
8 7 15 9 15 4 0 -5 11 -10 25 -10 21 -2 22 0 10 12 -7 8 -20 14 -27 14 -10 0
-9 3 2 10 8 5 13 10 10 11 -3 0 -16 2 -29 5 -20 4 -22 2 -12 -10z"/>
<path d="M3371 2917 c-14 -14 -14 -27 -1 -27 6 0 10 7 10 15 0 8 4 15 10 15 5
0 7 -7 4 -15 -4 -8 -2 -15 4 -15 8 0 22 22 22 34 0 8 -40 2 -49 -7z"/>
<path d="M3041 2904 c0 -11 3 -14 6 -6 3 7 2 16 -1 19 -3 4 -6 -2 -5 -13z"/>
<path d="M3460 2880 c0 -6 -4 -8 -10 -5 -5 3 -10 1 -10 -5 0 -6 -4 -8 -10 -5
-15 9 -12 -7 5 -29 14 -19 15 -19 15 -2 0 11 7 24 17 31 11 8 13 14 5 19 -7 4
-12 2 -12 -4z"/>
<path d="M3115 2849 c-4 -12 -2 -26 3 -31 8 -8 9 -4 5 13 -5 23 -5 23 9 5 10
-13 17 -16 22 -7 4 6 1 18 -8 26 -19 20 -23 19 -31 -6z"/>
<path d="M3372 2835 c0 -16 2 -22 5 -12 2 9 2 23 0 30 -3 6 -5 -1 -5 -18z"/>
<path d="M3473 2853 c-15 -5 -17 -23 -4 -23 5 0 11 7 15 15 3 8 4 15 3 14 -1
0 -8 -3 -14 -6z"/>
<path d="M3030 2816 c0 -31 6 -34 13 -6 3 11 1 23 -4 26 -5 3 -9 -6 -9 -20z"/>
<path d="M3174 2808 c3 -7 9 -21 12 -30 4 -10 10 -18 15 -18 5 0 9 -4 9 -10 0
-5 -7 -10 -15 -10 -13 0 -13 -4 2 -27 10 -16 26 -36 37 -45 14 -13 15 -18 5
-18 -12 0 -12 -2 0 -9 9 -6 10 -11 2 -15 -6 -4 -11 -15 -11 -24 0 -11 3 -13
11 -5 13 13 30 85 19 78 -5 -3 -9 3 -9 12 0 34 -6 58 -18 71 -7 7 -13 23 -14
35 -1 20 -2 20 -8 -3 l-7 -25 -7 28 c-4 15 -12 27 -18 27 -6 0 -8 -6 -5 -12z"/>
<path d="M3086 2779 c-8 -43 -8 -107 2 -112 4 -3 8 28 9 69 3 80 -1 93 -11 43z"/>
<path d="M3235 2780 c-3 -5 -1 -10 4 -10 6 0 11 5 11 10 0 6 -2 10 -4 10 -3 0
-8 -4 -11 -10z"/>
<path d="M3490 2774 c0 -8 5 -12 10 -9 6 3 10 10 10 16 0 5 -4 9 -10 9 -5 0
-10 -7 -10 -16z"/>
<path d="M3385 2741 c-6 -11 9 -23 19 -14 9 9 7 23 -3 23 -6 0 -12 -4 -16 -9z"/>
<path d="M3735 2723 c-28 -31 -35 -53 -7 -25 27 28 45 52 39 52 -4 0 -18 -12
-32 -27z"/>
<path d="M3450 2700 c-8 -5 -12 -12 -9 -15 4 -3 12 1 19 10 14 17 11 19 -10 5z"/>
<path d="M3596 2674 c-23 -23 -20 -30 4 -9 11 10 20 20 20 22 0 7 -9 2 -24
-13z"/>
<path d="M3636 2674 c-20 -19 -20 -25 -2 -18 8 3 17 12 20 20 7 18 1 18 -18
-2z"/>
<path d="M3724 2668 l-19 -23 25 20 c14 11 27 21 29 22 2 2 0 3 -6 3 -5 0 -18
-10 -29 -22z"/>
<path d="M3770 2680 c0 -5 5 -10 11 -10 5 0 7 5 4 10 -3 6 -8 10 -11 10 -2 0
-4 -4 -4 -10z"/>
<path d="M3410 2670 c0 -5 5 -10 10 -10 6 0 10 5 10 10 0 6 -4 10 -10 10 -5 0
-10 -4 -10 -10z"/>
<path d="M3295 2541 c-57 -35 -84 -88 -100 -193 -7 -44 -6 -48 14 -48 11 0 39
-10 61 -21 30 -16 52 -20 80 -16 22 3 42 1 45 -3 7 -12 76 8 98 28 27 24 36
44 47 103 9 47 8 53 -17 86 -60 79 -160 107 -228 64z m73 -33 c30 -30 -4 -77
-41 -57 -29 17 -15 69 18 69 6 0 16 -5 23 -12z m128 -74 c15 -59 -31 -156 -76
-162 -14 -2 -23 -2 -20 1 3 3 9 6 13 6 12 1 55 55 66 84 13 32 -1 82 -31 115
l-23 26 32 -23 c18 -12 36 -33 39 -47z m-242 -50 c3 -8 2 -12 -4 -9 -6 3 -10
10 -10 16 0 14 7 11 14 -7z m106 -112 c3 -2 -6 -1 -20 3 -14 4 -32 14 -40 22
-12 12 -7 11 20 -2 19 -10 37 -20 40 -23z"/>
<path d="M3700 2375 c0 -2 10 -13 22 -25 21 -19 21 -20 2 -20 -11 0 -15 -3 -8
-8 6 -4 10 -19 8 -34 -1 -16 2 -28 7 -28 5 0 8 -5 7 -11 -5 -22 29 -33 69 -23
46 11 53 39 10 39 -28 1 -71 40 -61 56 5 9 -35 59 -47 59 -5 0 -9 -2 -9 -5z"/>
<path d="M3150 2210 c0 -5 5 -10 11 -10 5 0 7 5 4 10 -3 6 -8 10 -11 10 -2 0
-4 -4 -4 -10z"/>
<path d="M3578 2213 c6 -2 18 -2 25 0 6 3 1 5 -13 5 -14 0 -19 -2 -12 -5z"/>
<path d="M3805 2199 c-10 -15 15 -39 39 -38 11 0 15 3 8 6 -6 2 -10 8 -8 12 3
4 -4 12 -14 19 -13 8 -21 8 -25 1z"/>
<path d="M3510 2170 c0 -5 7 -7 15 -4 8 4 15 8 15 10 0 2 -7 4 -15 4 -8 0 -15
-4 -15 -10z"/>
<path d="M3106 2142 c-3 -6 1 -13 10 -16 23 -9 28 -2 10 13 -8 7 -17 8 -20 3z"/>
<path d="M3465 2121 c3 -5 -3 -12 -12 -14 -12 -3 -10 -5 8 -6 14 0 33 -7 43
-14 19 -14 66 -11 66 4 0 14 -21 22 -32 11 -12 -12 -61 6 -52 19 3 5 -2 9 -11
9 -9 0 -14 -4 -10 -9z"/>
<path d="M3443 2066 c10 -8 27 -12 38 -9 25 7 22 9 -21 16 -31 6 -33 5 -17 -7z"/>
<path d="M3480 2032 c0 -5 14 -12 30 -14 33 -5 28 6 -7 17 -13 3 -23 2 -23 -3z"/>
<path d="M3265 2010 c3 -5 10 -10 16 -10 5 0 9 5 9 10 0 6 -7 10 -16 10 -8 0
-12 -4 -9 -10z"/>
<path d="M3569 2006 c17 -10 20 -15 10 -18 -8 -3 5 -8 28 -12 24 -4 61 -16 82
-27 22 -10 48 -19 58 -19 15 0 16 -2 3 -10 -12 -8 -11 -10 7 -10 12 0 24 4 28
10 8 13 -17 50 -33 50 -7 0 -11 4 -8 9 3 5 0 9 -7 8 -64 -2 -118 5 -131 18 -8
8 -25 15 -38 15 l-23 -1 24 -13z"/>
<path d="M3638 2003 c7 -3 16 -2 19 1 4 3 -2 6 -13 5 -11 0 -14 -3 -6 -6z"/>
<path d="M3325 1990 c3 -5 11 -10 16 -10 6 0 7 5 4 10 -3 6 -11 10 -16 10 -6
0 -7 -4 -4 -10z"/>
<path d="M3368 1983 c6 -2 18 -2 25 0 6 3 1 5 -13 5 -14 0 -19 -2 -12 -5z"/>
<path d="M3388 1963 c7 -3 16 -2 19 1 4 3 -2 6 -13 5 -11 0 -14 -3 -6 -6z"/>
<path d="M3205 1950 c3 -5 8 -10 11 -10 2 0 4 5 4 10 0 6 -5 10 -11 10 -5 0
-7 -4 -4 -10z"/>
<path d="M3380 1876 c28 -17 50 -21 35 -7 -6 5 -21 12 -35 15 l-25 7 25 -15z"/>
<path d="M2626 1673 c-6 -14 -5 -15 5 -6 7 7 10 15 7 18 -3 3 -9 -2 -12 -12z"/>
<path d="M3340 1670 c0 -5 5 -10 11 -10 5 0 7 5 4 10 -3 6 -8 10 -11 10 -2 0
-4 -4 -4 -10z"/>
<path d="M2797 1603 c-12 -12 -17 -13 -17 -4 0 9 -4 9 -15 -3 -8 -8 -15 -27
-15 -42 l0 -28 31 34 c30 34 30 34 13 5 -17 -29 -17 -30 2 -14 10 9 29 20 41
23 15 5 20 12 16 23 -6 14 -7 14 -19 -1 -13 -18 -31 -5 -19 14 9 15 1 12 -18
-7z"/>
<path d="M2520 1595 c-7 -9 -8 -15 -2 -15 5 0 12 7 16 15 3 8 4 15 2 15 -2 0
-9 -7 -16 -15z"/>
<path d="M2709 1598 c0 -7 -3 -26 -5 -43 l-4 -30 15 25 c17 29 19 60 5 60 -5
0 -10 -6 -11 -12z"/>
<path d="M2596 1585 c-25 -19 -16 -19 20 0 16 8 22 15 14 15 -8 -1 -24 -7 -34
-15z"/>
<path d="M2657 1576 c-4 -10 -3 -15 3 -11 6 3 10 1 10 -5 0 -6 5 -8 10 -5 6 3
10 14 10 23 0 13 -2 14 -9 3 -7 -11 -9 -11 -13 0 -3 9 -6 8 -11 -5z"/>
<path d="M3138 1576 c-9 -8 -19 -12 -23 -8 -5 4 -5 1 -1 -6 4 -7 16 -10 26 -7
12 4 20 0 23 -12 4 -16 5 -15 6 2 0 11 -3 26 -8 33 -7 11 -11 11 -23 -2z"/>
<path d="M2617 1573 c-4 -3 -7 -20 -6 -37 l1 -31 9 34 c10 33 8 47 -4 34z"/>
<path d="M2573 1553 c-16 -6 -17 -33 -3 -33 11 0 26 28 19 34 -2 2 -10 1 -16
-1z"/>
<path d="M2302 1519 c-12 -19 -11 -19 8 -9 11 6 18 15 15 21 -8 12 -8 12 -23
-12z"/>
<path d="M2800 1509 c0 -5 5 -7 10 -4 6 3 10 8 10 11 0 2 -4 4 -10 4 -5 0 -10
-5 -10 -11z"/>
<path d="M3580 1510 c0 -4 7 -13 15 -20 11 -9 15 -9 15 -1 0 7 6 9 13 5 9 -5
9 -4 0 6 -14 16 -43 22 -43 10z"/>
<path d="M2303 1482 c-9 -15 -8 -19 3 -19 8 0 14 9 14 19 0 10 -1 18 -3 18 -1
0 -7 -8 -14 -18z"/>
<path d="M3185 1490 c-3 -5 -11 -8 -18 -6 -7 1 -9 1 -5 -1 4 -2 5 -10 2 -18
-3 -7 4 -19 17 -25 18 -10 21 -10 17 2 -4 9 1 14 13 14 11 0 19 -6 19 -12 0
-6 9 -14 20 -17 11 -3 20 -1 20 4 0 5 -5 9 -10 9 -6 0 -18 12 -28 28 -18 29
-37 38 -47 22z"/>
<path d="M3247 1480 c10 -11 19 -20 21 -20 1 0 -2 9 -8 20 -6 11 -15 20 -20
20 -6 0 -2 -9 7 -20z"/>
<path d="M2523 1465 c-7 -16 -15 -47 -19 -69 -7 -38 -7 -39 23 -34 20 3 30 0
30 -9 0 -7 -9 -13 -19 -13 -11 0 -17 -4 -14 -9 3 -5 -3 -20 -14 -34 -11 -14
-20 -33 -20 -44 1 -17 1 -17 14 0 12 16 14 16 20 1 8 -22 8 -26 -4 -19 -5 3
-10 1 -10 -5 0 -6 -4 -8 -10 -5 -6 4 -10 -6 -10 -21 0 -19 12 -41 36 -65 34
-35 36 -39 25 -70 -13 -36 -3 -53 23 -43 13 5 16 13 11 31 -3 14 -1 31 6 39
14 17 33 19 23 2 -6 -10 -4 -10 6 -1 12 11 11 31 -5 123 -12 73 -16 132 -12
175 4 44 3 65 -5 65 -7 0 -6 5 2 15 16 19 7 19 -30 0 -26 -13 -29 -13 -32 3
-2 12 -7 9 -15 -13z"/>
<path d="M2736 1473 c-6 -14 -5 -15 5 -6 7 7 10 15 7 18 -3 3 -9 -2 -12 -12z"/>
<path d="M2681 1453 c0 -6 -4 -20 -7 -30 -5 -14 -4 -15 5 -7 7 7 11 20 8 30
-3 11 -5 14 -6 7z"/>
<path d="M3094 1442 c2 -4 -4 -39 -15 -77 -19 -69 -16 -84 16 -85 14 0 36 -58
25 -65 -5 -3 -10 5 -12 17 -2 12 -10 24 -18 26 -12 4 -13 2 -3 -10 9 -10 10
-24 3 -46 -5 -18 -5 -32 0 -32 4 0 11 -17 16 -37 4 -23 9 -31 11 -20 4 16 7
15 25 -5 11 -13 17 -18 14 -12 -8 17 24 27 40 13 11 -9 14 -8 14 3 0 21 38 19
54 -3 10 -15 15 -17 18 -7 4 11 8 11 21 0 14 -12 17 -10 23 12 3 15 4 37 2 51
-3 13 -1 22 3 19 5 -3 9 6 9 20 0 14 -4 28 -10 31 -5 3 -10 11 -10 17 0 7 4 7
13 0 9 -8 13 3 14 49 2 37 -1 58 -7 54 -6 -3 -10 0 -10 7 0 11 -2 11 -9 0 -4
-7 -6 -25 -3 -39 4 -24 3 -24 -19 -12 -21 11 -23 11 -11 -3 7 -9 12 -20 11
-24 -1 -5 3 -22 9 -37 16 -38 4 -56 -14 -22 -8 15 -12 31 -9 35 3 5 1 11 -5
15 -5 3 -10 1 -10 -6 0 -8 -4 -8 -15 1 -13 11 -14 8 -11 -16 2 -16 1 -22 -2
-14 -3 10 -11 2 -24 -25 -10 -22 -16 -33 -14 -23 3 10 -3 18 -15 21 -16 4 -19
2 -13 -16 3 -12 11 -28 17 -35 6 -8 7 -16 1 -22 -6 -6 -17 10 -29 45 -10 31
-24 60 -32 66 -7 6 -13 25 -13 41 0 16 -4 37 -9 47 -11 20 -5 31 26 48 19 11
24 10 32 -5 7 -10 11 -12 11 -4 0 7 5 10 10 7 6 -3 1 10 -11 30 -17 29 -24 33
-36 24 -10 -9 -17 -9 -25 -1 -13 13 -32 16 -24 4z m143 -294 c-3 -7 -5 -2 -5
12 0 14 2 19 5 13 2 -7 2 -19 0 -25z"/>
<path d="M3286 1437 c3 -10 9 -15 12 -12 3 3 0 11 -7 18 -10 9 -11 8 -5 -6z"/>
<path d="M2275 1430 c-4 -6 5 -10 19 -10 14 0 26 5 26 10 0 6 -9 10 -19 10
-11 0 -23 -4 -26 -10z"/>
<path d="M3000 1420 l-25 -21 28 12 c15 7 27 16 27 21 0 11 -1 10 -30 -12z"/>
<path d="M3557 1433 c-10 -10 -8 -33 2 -33 6 0 9 9 8 20 -1 23 -1 22 -10 13z"/>
<path d="M2636 1415 c-3 -9 0 -15 9 -15 8 0 15 7 15 15 0 8 -4 15 -9 15 -5 0
-11 -7 -15 -15z"/>
<path d="M3640 1425 c0 -2 15 -12 33 -20 l32 -16 -25 20 c-24 20 -40 26 -40
16z"/>
<path d="M2815 1409 c-11 -17 1 -21 15 -4 8 9 8 15 2 15 -6 0 -14 -5 -17 -11z"/>
<path d="M3994 1390 c-1 -17 3 -30 7 -30 5 0 9 -11 9 -25 0 -14 3 -25 8 -25 9
0 9 59 -1 88 -12 31 -22 28 -23 -8z"/>
<path d="M2108 1403 c7 -3 16 -2 19 1 4 3 -2 6 -13 5 -11 0 -14 -3 -6 -6z"/>
<path d="M3040 1390 c0 -5 5 -10 10 -10 6 0 10 5 10 10 0 6 -4 10 -10 10 -5 0
-10 -4 -10 -10z"/>
<path d="M3880 1391 c0 -5 5 -13 10 -16 6 -3 10 -2 10 4 0 5 -4 13 -10 16 -5
3 -10 2 -10 -4z"/>
<path d="M2100 1376 c7 -7 14 -6 21 1 9 9 7 12 -9 10 -14 -1 -18 -5 -12 -11z"/>
<path d="M2187 1376 c-22 -17 -22 -37 0 -29 12 5 15 2 10 -10 -5 -15 -3 -16
12 -7 13 6 17 17 14 30 -7 27 -15 31 -36 16z"/>
<path d="M2630 1375 c-12 -14 -12 -18 1 -26 12 -8 12 -10 0 -18 -16 -11 -10
-112 10 -170 10 -27 14 -31 23 -20 6 8 20 15 31 17 11 2 25 9 30 15 6 7 19 17
30 23 11 6 22 20 23 30 3 15 1 17 -9 7 -15 -15 -33 -17 -24 -3 12 20 -7 9 -31
-17 -25 -28 -25 -28 -13 -3 6 14 18 33 26 42 14 15 13 19 -2 35 -11 11 -14 18
-6 21 6 2 11 8 11 13 0 4 -8 5 -17 2 -16 -6 -16 -5 -4 10 12 15 11 17 -8 17
-23 0 -29 16 -8 23 6 2 0 3 -15 1 -15 -2 -28 2 -30 7 -2 7 -10 4 -18 -6z"/>
<path d="M2917 1371 c-24 -28 -29 -41 -13 -35 8 3 17 12 20 20 3 9 10 13 14
10 5 -3 17 0 26 7 14 11 14 12 -8 13 -14 1 -31 -6 -39 -15z"/>
<path d="M3627 1363 c3 -7 9 -13 14 -13 5 0 9 -7 9 -15 0 -8 9 -15 20 -15 24
0 27 15 4 24 -8 3 -12 11 -9 17 4 6 14 8 23 4 9 -3 13 -3 9 2 -5 4 -23 8 -42
9 -24 0 -32 -3 -28 -13z"/>
<path d="M2779 1353 c-13 -16 -12 -17 4 -4 9 7 17 15 17 17 0 8 -8 3 -21 -13z"/>
<path d="M3568 1360 c15 -17 16 -34 1 -24 -8 4 -8 0 0 -15 7 -11 16 -21 22
-21 6 0 7 5 3 12 -5 7 -2 9 9 5 18 -7 32 19 15 29 -7 4 -8 3 -4 -4 12 -19 -6
-14 -33 10 -14 13 -20 16 -13 8z"/>
<path d="M2056 1353 c-3 -4 -6 -15 -6 -25 0 -11 -4 -16 -11 -12 -8 5 -8 1 0
-13 7 -14 7 -23 -2 -32 -9 -9 -8 -14 3 -21 8 -5 10 -10 4 -10 -13 0 -6 -47 8
-56 14 -9 89 77 80 90 -3 6 -5 21 -3 34 2 21 0 22 -17 13 -15 -8 -23 -7 -31 3
-9 11 -9 15 1 18 8 3 7 6 -4 10 -9 4 -19 4 -22 1z"/>
<path d="M2930 1342 c0 -7 -13 -36 -30 -65 -16 -29 -30 -45 -30 -37 0 31 -30
-16 -35 -56 l-5 -39 29 33 c32 36 47 42 31 13 -5 -11 -9 -30 -9 -43 2 -30 -28
-97 -46 -105 -8 -3 -15 -15 -16 -27 0 -11 -3 -15 -6 -8 -2 6 -9 10 -14 6 -5
-3 -9 0 -9 6 0 6 -4 8 -10 5 -6 -4 -7 1 -3 12 6 16 5 16 -10 4 -9 -7 -15 -17
-12 -21 3 -5 0 -12 -6 -16 -8 -5 -8 -8 1 -14 8 -5 8 -9 -3 -13 -11 -4 -14 1
-12 21 3 24 2 25 -11 7 -8 -10 -14 -22 -14 -27 0 -20 64 -128 72 -120 11 11
14 61 4 92 -5 17 -4 20 2 11 8 -11 12 -10 21 5 10 18 10 18 11 -2 0 -11 -3
-25 -7 -30 -5 -6 7 6 25 25 19 21 32 29 32 20 0 -9 -14 -28 -30 -44 -17 -17
-28 -35 -25 -44 3 -7 -2 -22 -11 -32 -10 -11 -12 -19 -6 -19 14 0 15 -10 2
-30 -9 -13 -11 -13 -20 0 -8 13 -12 12 -25 -8 -9 -12 -21 -20 -26 -17 -14 9
-39 -20 -39 -45 0 -20 3 -19 43 14 l43 36 -4 -30 c-3 -22 0 -30 10 -30 18 0
54 38 45 47 -11 11 13 32 30 26 8 -3 11 -9 6 -12 -5 -3 -18 -18 -30 -34 -26
-33 -19 -69 17 -95 19 -13 25 -27 26 -54 1 -22 -3 -38 -10 -38 -7 0 -6 -3 2
-8 9 -6 10 -15 3 -33 l-10 -24 -1 25 c-1 24 -1 24 -15 6 -20 -26 -19 -62 1
-70 20 -8 54 10 54 29 0 9 6 12 15 9 10 -4 15 0 16 12 0 11 3 14 6 7 2 -7 12
-13 22 -13 13 0 16 8 13 40 -3 29 1 47 13 60 22 24 12 63 -15 55 -14 -4 -19 1
-23 27 -7 47 3 55 20 19 9 -17 20 -31 25 -31 6 0 5 7 -2 15 -7 8 -10 21 -6 30
6 18 36 9 36 -11 0 -9 9 -13 25 -12 14 1 25 7 25 12 0 5 11 -1 25 -14 29 -27
35 -9 9 28 -17 25 -16 26 21 12 22 -8 26 -8 22 3 -3 7 3 13 13 14 10 1 21 -5
24 -13 3 -8 1 -14 -3 -14 -5 0 -12 6 -14 13 -4 9 -6 9 -6 0 -1 -19 15 -24 42
-14 14 6 28 6 33 1 16 -16 84 -19 84 -4 0 8 6 14 14 14 8 0 16 7 18 15 2 13 5
12 15 -4 11 -17 10 -19 -2 -15 -8 4 -15 1 -15 -5 0 -6 5 -11 11 -11 5 0 7 -6
4 -12 -4 -7 0 -5 8 4 8 10 17 15 20 12 3 -3 3 4 0 16 -5 18 -2 21 18 18 13 -1
28 -13 34 -25 5 -13 14 -23 19 -23 4 0 5 10 2 23 -19 63 -16 75 7 30 8 -16 12
-34 10 -40 -3 -7 0 -13 6 -13 15 0 14 33 -1 49 -11 11 -10 13 4 8 18 -6 25 14
27 87 1 22 4 43 7 48 3 5 0 16 -7 24 -10 12 -14 12 -20 2 -7 -10 -9 -10 -9 2
0 13 -1 13 -10 0 -14 -22 -31 31 -31 99 -1 35 -7 62 -16 73 -8 9 -13 21 -10
25 3 5 -5 28 -18 51 -13 24 -19 40 -13 36 8 -5 9 -1 5 12 -4 11 6 5 24 -16 21
-23 27 -27 19 -12 -15 30 -6 41 10 13 6 -12 15 -21 20 -21 16 0 11 27 -5 34
-8 3 -15 10 -15 16 0 8 7 8 23 0 20 -9 20 -9 3 2 -11 7 -28 21 -39 31 -10 11
-27 17 -37 14 -11 -3 -21 -2 -23 2 -2 3 -2 1 -1 -6 2 -7 -1 -15 -6 -18 -17
-10 -12 -95 5 -101 8 -4 15 -12 15 -19 0 -6 9 -22 20 -35 27 -31 26 -48 -2
-24 -20 18 -21 18 -15 1 4 -11 10 -31 14 -45 6 -26 5 -27 -14 -9 -11 9 -23 14
-26 10 -4 -3 -7 -1 -7 5 0 7 4 12 10 12 5 0 7 6 4 13 -3 8 -12 14 -20 14 -11
0 -14 -10 -11 -36 2 -20 6 -42 11 -49 4 -6 4 -16 1 -22 -3 -5 -2 -10 4 -10 10
0 34 -70 27 -77 -2 -2 -12 13 -22 34 l-19 38 -6 -55 c-3 -30 -6 -45 -7 -33 -1
12 -7 25 -14 29 -8 5 -9 -3 -5 -30 3 -20 2 -34 -3 -31 -4 3 -11 -1 -13 -7 -3
-7 -6 -3 -6 10 -1 18 -4 20 -14 10 -8 -6 -11 -23 -9 -37 3 -15 1 -23 -3 -18
-5 4 -8 34 -7 67 2 60 -11 81 -22 36 -5 -22 -33 -42 -43 -32 -8 7 -11 56 -3
56 3 0 5 14 2 30 -7 46 -13 30 -19 -49 -3 -49 -1 -76 7 -87 7 -8 10 -17 7 -20
-11 -11 -35 22 -39 52 -4 26 -5 27 -13 9 -5 -11 -14 -25 -21 -32 -16 -17 -33
26 -38 95 -4 74 18 62 24 -14 4 -41 7 -53 12 -39 4 11 7 23 5 26 -1 4 7 16 17
28 15 17 17 24 8 33 -9 9 -12 9 -12 -1 0 -11 -3 -11 -15 -1 -8 7 -15 21 -15
31 0 11 -5 16 -13 13 -9 -3 -12 7 -9 38 l3 43 -25 -30 -25 -30 -2 25 c-1 14
-2 31 -2 38 1 6 -3 12 -9 12 -5 0 -6 -15 -3 -34 4 -20 2 -36 -4 -40 -6 -4 -11
-16 -11 -27 0 -10 -4 -19 -10 -19 -5 0 -7 6 -5 13 2 6 6 48 8 92 3 58 10 89
25 114 20 33 20 33 32 11 6 -12 9 -28 6 -36 -4 -9 -2 -12 5 -8 14 8 5 97 -10
102 -6 2 -11 14 -11 27 0 22 -24 40 -40 30 -5 -3 -11 4 -15 15 -7 22 -55 25
-55 2z m100 -57 c0 -5 -5 -3 -10 5 -5 8 -10 20 -10 25 0 6 5 3 10 -5 5 -8 10
-19 10 -25z m388 -23 c2 -7 -6 -12 -17 -12 -21 0 -27 11 -14 24 9 9 26 2 31
-12z m-441 -142 c-5 -46 -22 -55 -25 -14 -1 22 2 33 8 29 5 -3 10 -1 10 4 0 6
2 11 5 11 3 0 3 -14 2 -30z m-67 0 c0 -5 -5 -10 -11 -10 -5 0 -7 5 -4 10 3 6
8 10 11 10 2 0 4 -4 4 -10z m21 -31 c-9 -22 -10 -22 -10 -3 -1 11 2 24 6 27
12 12 14 0 4 -24z m476 -104 c9 -24 -1 -27 -15 -5 -8 13 -8 20 -2 20 6 0 13
-7 17 -15z m52 -80 c0 -5 -6 -1 -14 9 -8 10 -11 24 -8 29 6 10 21 -16 22 -38z
m-522 28 c-3 -5 1 -14 9 -21 11 -10 16 -9 26 8 18 29 31 25 23 -7 l-6 -27 20
25 c11 13 20 20 21 16 0 -18 -33 -40 -67 -43 -19 -2 -41 -11 -48 -20 -10 -15
-11 -12 -7 17 2 19 9 40 14 47 11 13 22 17 15 5z m120 -35 c-3 -8 -6 -5 -6 6
-1 11 2 17 5 13 3 -3 4 -12 1 -19z m-197 -13 c-7 -9 -15 -13 -17 -11 -7 7 7
26 19 26 6 0 6 -6 -2 -15z m22 -8 c-6 -7 -9 -25 -8 -39 2 -15 -1 -25 -6 -22
-5 3 -7 12 -4 20 3 8 0 14 -6 14 -6 0 -3 9 7 20 20 22 34 28 17 7z m488 3 c0
-5 -2 -10 -4 -10 -3 0 -8 5 -11 10 -3 6 -1 10 4 10 6 0 11 -4 11 -10z m-300
-27 c0 -5 -5 -15 -10 -23 -8 -12 -10 -11 -10 8 0 12 5 22 10 22 6 0 10 -3 10
-7z m167 -8 c9 -24 -1 -27 -15 -5 -8 13 -8 20 -2 20 6 0 13 -7 17 -15z m-303
-77 c-4 -18 -7 -39 -5 -45 1 -7 -5 -13 -14 -13 -9 0 -15 9 -15 26 0 14 4 23
10 19 6 -3 11 0 12 7 0 7 2 18 3 23 2 6 3 14 4 19 0 5 4 7 7 3 3 -3 2 -21 -2
-39z m-72 -18 c-14 -13 -19 -26 -15 -37 6 -15 5 -16 -9 -3 -15 14 -14 17 10
42 14 15 28 26 31 23 2 -3 -5 -14 -17 -25z m131 15 c-3 -9 -8 -14 -10 -11 -3
3 -2 9 2 15 9 16 15 13 8 -4z m-120 -40 c-3 -9 -8 -14 -10 -11 -3 3 -2 9 2 15
9 16 15 13 8 -4z m94 -107 c-3 -7 -5 -2 -5 12 0 14 2 19 5 13 2 -7 2 -19 0
-25z m-66 -19 c-5 -13 -10 -19 -10 -12 -1 15 10 45 15 40 3 -2 0 -15 -5 -28z
m-4 -51 c-3 -8 -6 -5 -6 6 -1 11 2 17 5 13 3 -3 4 -12 1 -19z"/>
<path d="M3890 1340 c12 -8 11 -10 -7 -10 -13 0 -23 -4 -23 -8 0 -18 63 -137
76 -145 8 -5 12 -12 9 -16 -2 -5 10 -15 28 -22 17 -7 35 -18 39 -23 5 -7 8 -5
8 4 0 9 9 23 20 33 12 10 18 22 15 27 -3 6 5 14 19 20 17 6 24 14 20 25 -6 14
-8 13 -20 -2 -11 -15 -15 -16 -23 -4 -5 8 -19 12 -33 9 -23 -4 -41 6 -47 27
-1 6 -13 16 -26 22 -13 7 -26 26 -30 43 -4 19 -13 30 -23 30 -15 0 -15 -2 -2
-10z m145 -130 c3 -5 1 -10 -4 -10 -6 0 -11 5 -11 10 0 6 2 10 4 10 3 0 8 -4
11 -10z"/>
<path d="M4060 1331 c0 -5 5 -13 10 -16 6 -3 10 -2 10 4 0 5 -4 13 -10 16 -5
3 -10 2 -10 -4z"/>
<path d="M2497 1323 c-4 -3 -7 -11 -7 -17 0 -6 5 -5 12 2 6 6 9 14 7 17 -3 3
-9 2 -12 -2z"/>
<path d="M3547 1293 c6 -16 5 -17 -11 -3 -18 14 -18 12 -11 -30 9 -54 9 -54
32 -41 10 6 13 11 7 11 -7 0 -15 8 -19 17 -4 12 4 9 23 -10 40 -39 47 -23 11
29 -32 46 -43 56 -32 27z"/>
<path d="M3585 1280 c3 -5 11 -10 16 -10 6 0 7 5 4 10 -3 6 -11 10 -16 10 -6
0 -7 -4 -4 -10z"/>
<path d="M4045 1270 c-3 -5 1 -10 10 -10 9 0 13 5 10 10 -3 6 -8 10 -10 10 -2
0 -7 -4 -10 -10z"/>
<path d="M3181 1260 c0 -8 4 -22 9 -30 12 -18 12 -2 0 25 -6 13 -9 15 -9 5z"/>
<path d="M4165 1223 c4 -9 -2 -11 -22 -7 -20 4 -33 0 -45 -13 -16 -18 -16 -19
3 -20 14 -1 19 3 15 13 -7 19 19 18 39 -2 23 -23 40 -4 19 22 -8 10 -13 13 -9
7z"/>
<path d="M3670 1192 c6 -13 14 -21 18 -18 3 4 -2 14 -12 24 -18 16 -18 16 -6
-6z"/>
<path d="M1950 1174 l-25 -14 26 0 c15 0 32 7 39 15 16 19 -4 19 -40 -1z"/>
<path d="M4073 1163 c-25 -10 -12 -23 22 -23 19 0 35 5 35 10 0 6 -12 8 -27 4
-22 -4 -25 -3 -13 5 15 11 5 13 -17 4z"/>
<path d="M3358 1148 c10 -13 10 -17 0 -20 -8 -3 -6 -7 5 -11 23 -9 22 16 0 34
-16 13 -17 12 -5 -3z"/>
<path d="M1940 1135 c-33 -19 -21 -19 21 0 19 8 27 14 19 14 -8 0 -26 -6 -40
-14z"/>
<path d="M3072 1125 c0 -16 2 -22 5 -12 2 9 2 23 0 30 -3 6 -5 -1 -5 -18z"/>
<path d="M3440 1140 c0 -5 5 -10 10 -10 6 0 9 -4 8 -9 -3 -8 2 -11 17 -11 3 0
1 9 -5 20 -11 21 -30 27 -30 10z"/>
<path d="M2841 1113 c-7 -17 -21 -39 -32 -49 -21 -19 -25 -34 -9 -34 15 0 62
79 58 98 -2 12 -7 7 -17 -15z"/>
<path d="M1975 1120 c-3 -6 1 -7 9 -4 18 7 21 14 7 14 -6 0 -13 -4 -16 -10z"/>
<path d="M3041 1114 c0 -11 3 -14 6 -6 3 7 2 16 -1 19 -3 4 -6 -2 -5 -13z"/>
<path d="M3635 1120 c-3 -5 1 -13 10 -16 22 -9 29 1 11 15 -10 8 -16 9 -21 1z"/>
<path d="M3804 1112 c3 -5 -1 -13 -10 -16 -8 -3 -12 -2 -9 4 3 5 -1 7 -9 4 -8
-3 -12 -12 -9 -20 5 -13 10 -15 45 -18 17 -1 16 46 -1 52 -8 3 -11 0 -7 -6z"/>
<path d="M1916 1101 c-3 -5 0 -12 6 -14 8 -3 6 -6 -5 -6 -11 -1 -15 -5 -11
-13 5 -8 2 -9 -9 -5 -10 3 -17 2 -17 -3 0 -6 5 -10 11 -10 5 0 7 -4 4 -10 -3
-5 0 -10 7 -11 7 0 2 -6 -12 -12 -47 -22 -50 -26 -40 -52 6 -15 6 -25 0 -25
-11 0 -93 -103 -96 -122 -2 -7 -10 -33 -19 -57 -9 -24 -14 -50 -11 -57 3 -7 1
-16 -3 -19 -8 -5 -5 -85 4 -112 7 -22 23 -15 38 17 10 19 12 32 5 36 -6 4 -6
9 3 14 17 11 22 50 6 50 -8 0 -8 3 2 9 8 5 14 23 15 40 1 20 6 31 16 31 11 0
11 3 2 12 -9 9 -7 14 6 24 15 12 14 12 -8 7 -24 -6 -24 -6 -7 11 9 10 17 28
17 40 0 12 14 35 30 51 17 16 30 34 30 41 0 7 6 15 13 17 9 4 9 6 -1 6 -19 1
-4 21 16 21 23 0 43 14 45 31 2 8 5 19 8 24 12 23 3 50 -18 53 -11 2 -24 -1
-27 -7z m39 -31 c3 -5 -1 -10 -10 -10 -9 0 -13 5 -10 10 3 6 8 10 10 10 2 0 7
-4 10 -10z"/>
<path d="M4013 1093 c9 -2 25 -2 35 0 9 3 1 5 -18 5 -19 0 -27 -2 -17 -5z"/>
<path d="M4150 1080 c-12 -7 -12 -12 4 -29 l19 -21 -48 7 c-35 4 -46 3 -41 -5
4 -7 0 -15 -9 -19 -16 -5 -15 -7 1 -16 18 -10 17 -11 -5 -17 -13 -3 -27 -15
-32 -27 -6 -17 -5 -21 7 -16 8 3 12 8 9 11 -5 5 39 29 80 43 19 6 19 7 -5 17
-21 9 -16 10 24 5 39 -5 47 -3 41 7 -5 9 -4 11 3 6 7 -4 12 -14 12 -22 0 -8 3
-14 8 -15 4 0 19 -3 35 -5 33 -6 34 2 5 27 -19 16 -20 18 -4 12 14 -5 17 -3
12 6 -5 7 -18 10 -30 7 -16 -4 -25 2 -38 24 -18 32 -25 35 -48 20z"/>
<path d="M3241 1064 c0 -11 3 -14 6 -6 3 7 2 16 -1 19 -3 4 -6 -2 -5 -13z"/>
<path d="M3740 1065 c7 -9 15 -13 17 -11 7 7 -7 26 -19 26 -6 0 -6 -6 2 -15z"/>
<path d="M4233 1073 c4 -6 1 -13 -5 -16 -7 -2 -11 -7 -8 -9 3 -3 13 -2 23 1
18 7 18 8 1 21 -10 8 -15 10 -11 3z"/>
<path d="M3119 1069 c-7 -51 -7 -81 0 -70 7 11 9 11 14 0 4 -8 4 4 0 26 -5 35
-12 57 -14 44z"/>
<path d="M3681 1061 c-9 -6 -10 -11 -2 -15 6 -4 11 -12 11 -18 0 -6 -12 -1
-27 13 -14 13 -23 18 -19 12 4 -7 3 -13 -3 -13 -5 0 -9 -8 -8 -18 1 -13 8 -18
23 -16 13 1 30 -6 40 -17 9 -10 12 -19 6 -19 -6 0 -14 5 -17 10 -12 19 -27 10
-22 -12 5 -19 4 -21 -6 -8 -24 30 -65 50 -87 42 -20 -8 -19 -10 20 -60 44 -55
45 -65 3 -33 -14 12 -31 17 -41 14 -10 -4 -12 -8 -4 -11 7 -2 12 -8 12 -13 0
-6 -4 -7 -10 -4 -10 6 -12 -6 -14 -77 0 -20 -4 -34 -8 -32 -5 3 -8 -6 -8 -20
0 -14 3 -27 8 -27 51 -9 59 -2 53 48 -1 6 8 18 19 26 11 7 17 17 13 21 -4 4 1
4 12 0 15 -6 17 -4 12 9 -6 17 2 21 37 17 11 -1 16 3 11 10 -9 15 25 52 42 46
8 -3 13 2 13 14 0 10 8 24 18 29 15 9 15 12 2 21 -13 8 -13 10 3 10 9 0 17 6
17 14 0 20 -28 46 -49 46 -9 0 -21 4 -27 10 -5 5 -15 5 -23 1z m44 -31 c3 -6
-1 -7 -9 -4 -18 7 -21 14 -7 14 6 0 13 -4 16 -10z m-130 -58 c-3 -3 -11 0 -18
7 -9 10 -8 11 6 5 10 -3 15 -9 12 -12z m35 -2 c0 -5 -2 -10 -4 -10 -3 0 -8 5
-11 10 -3 6 -1 10 4 10 6 0 11 -4 11 -10z"/>
<path d="M4018 1061 c10 -6 8 -10 -10 -15 -19 -5 -20 -8 -8 -16 10 -7 1 -8
-33 -4 -26 3 -57 2 -67 -1 -32 -10 -8 -39 45 -53 51 -14 75 -2 75 37 0 11 7
26 15 34 13 13 13 16 -1 21 -23 9 -31 7 -16 -3z"/>
<path d="M3456 1027 c3 -10 9 -15 12 -12 3 3 0 11 -7 18 -10 9 -11 8 -5 -6z"/>
<path d="M2690 1020 c0 -5 5 -10 11 -10 5 0 7 5 4 10 -3 6 -8 10 -11 10 -2 0
-4 -4 -4 -10z"/>
<path d="M3791 1014 c0 -11 3 -14 6 -6 3 7 2 16 -1 19 -3 4 -6 -2 -5 -13z"/>
<path d="M2638 999 c-10 -5 -18 -21 -18 -34 0 -16 -10 -31 -27 -42 -65 -42
-69 -60 -13 -69 37 -6 40 -9 40 -39 0 -27 -5 -34 -24 -37 -22 -5 -23 -3 -14
24 17 47 3 42 -28 -9 -29 -50 -54 -80 -54 -66 0 15 -50 13 -88 -4 -26 -11 -32
-17 -20 -20 9 -2 15 -10 12 -17 -3 -8 2 -16 12 -20 16 -6 16 -8 -1 -25 -15
-17 -86 -38 -109 -32 -4 1 -20 -6 -33 -15 -39 -25 -15 -37 82 -42 l85 -5 2 54
c1 30 2 64 2 75 0 14 5 20 13 17 7 -3 13 0 13 6 0 6 7 11 15 11 9 0 32 11 53
24 39 24 43 26 66 26 8 0 21 17 29 38 l16 37 -2 -36 c-2 -20 -7 -43 -13 -50
-14 -18 -25 -89 -14 -89 12 0 20 28 14 45 -4 8 7 27 25 46 31 30 42 57 19 43
-10 -6 -10 -4 0 8 10 13 10 17 0 20 -10 4 -9 9 4 21 15 16 17 16 21 -1 4 -13
5 -12 6 5 1 31 -12 36 -33 12 -10 -12 -20 -18 -23 -15 -11 11 30 47 46 40 9
-3 21 -7 27 -7 7 0 10 -15 8 -41 l-4 -41 14 30 c13 27 12 33 -7 68 -14 26 -23
33 -29 25 -5 -8 -8 -1 -8 19 0 38 -14 50 -38 31 -15 -12 -15 -10 1 15 19 29 8
36 -25 16z m8 -127 c-20 -20 -22 -1 -4 31 11 20 12 21 16 3 2 -10 -3 -26 -12
-34z m-56 2 c0 -8 -5 -12 -10 -9 -6 4 -8 11 -5 16 9 14 15 11 15 -7z"/>
<path d="M3321 994 c0 -11 3 -14 6 -6 3 7 2 16 -1 19 -3 4 -6 -2 -5 -13z"/>
<path d="M3208 940 c-3 -30 -5 -56 -4 -56 0 -1 6 3 11 10 6 6 8 31 5 56 l-5
45 -7 -55z"/>
<path d="M3517 969 c4 -13 8 -18 11 -10 2 7 -1 18 -6 23 -8 8 -9 4 -5 -13z"/>
<path d="M4186 942 c-3 -5 1 -16 10 -23 14 -12 14 -14 -3 -20 -10 -4 -36 -5
-58 -2 -38 4 -107 -15 -106 -30 1 -4 -1 -7 -4 -7 -10 1 -35 -28 -35 -39 0 -6
-13 -17 -29 -25 -16 -9 -31 -24 -34 -36 -3 -13 -13 -20 -30 -20 -17 0 -24 -5
-23 -17 1 -12 -7 -19 -22 -21 -23 -3 -23 -4 -5 -18 17 -14 16 -15 -12 -9 -16
3 -35 13 -41 20 -9 13 -14 12 -28 -4 -16 -17 -16 -19 1 -24 10 -4 25 -11 33
-16 8 -5 36 -17 63 -27 26 -9 47 -23 47 -30 0 -8 -6 -11 -15 -8 -8 4 -15 10
-15 14 0 8 -51 24 -60 18 -3 -2 -4 -6 -2 -10 1 -5 -4 -8 -10 -8 -8 0 -5 -7 6
-15 20 -15 20 -15 0 -15 -12 0 -21 -6 -22 -12 -1 -7 -3 -24 -4 -37 -2 -15 3
-26 12 -28 13 -4 13 -3 0 7 -12 9 -12 11 -1 8 28 -8 24 -29 -4 -26 -21 2 -29
-2 -36 -20 -8 -20 -6 -22 17 -18 14 3 36 0 50 -6 21 -10 22 -13 10 -27 -13
-14 -11 -16 15 -17 35 -1 38 18 7 40 -12 9 -18 16 -13 16 22 -1 48 -30 48 -54
0 -14 8 -33 19 -43 11 -10 19 -13 18 -8 -5 24 2 25 29 6 27 -20 29 -20 45 -2
9 9 13 20 10 23 -3 4 0 17 7 30 7 12 13 35 14 50 0 23 -4 27 -20 22 -27 -7 40
52 77 69 16 6 28 17 28 23 0 16 34 44 53 44 22 0 21 9 0 33 -17 18 -17 19 16
14 19 -3 38 -12 42 -19 7 -10 9 -9 9 3 0 11 13 19 38 24 20 4 31 10 24 12 -9
4 -10 8 -2 18 8 10 20 11 42 4 17 -4 35 -6 39 -3 5 3 20 -3 34 -12 15 -10 25
-12 25 -5 0 6 -6 11 -14 11 -8 0 -17 11 -20 24 -4 17 -17 27 -51 36 -25 7 -45
17 -45 22 0 5 -9 4 -20 -2 -15 -8 -20 -8 -20 1 0 7 -9 6 -25 -5 -13 -9 -37
-16 -53 -16 -15 0 -33 -5 -38 -10 -6 -6 -24 -13 -40 -16 -21 -3 -25 -2 -14 5
8 5 18 7 24 4 5 -3 6 -1 2 5 -3 6 -15 9 -26 7 -11 -2 -20 0 -20 5 0 12 54 55
105 86 37 21 52 24 92 19 35 -5 44 -4 33 4 -8 6 -23 11 -32 11 -11 0 -15 5
-12 14 3 8 -4 20 -15 28 -12 8 -18 18 -14 21 3 4 1 7 -5 7 -5 0 -17 3 -25 6
-8 3 -18 1 -21 -4z m-252 -356 c-4 -11 0 -13 15 -9 12 3 21 3 21 0 0 -12 -53
-97 -60 -97 -17 0 -19 17 -4 44 7 16 14 39 14 52 0 13 4 24 10 24 5 0 7 -6 4
-14z m-91 -32 c11 -11 -3 -24 -18 -18 -8 4 -12 10 -9 15 6 11 18 12 27 3z
m-23 -94 c18 -12 2 -12 -25 0 -13 6 -15 9 -5 9 8 0 22 -4 30 -9z"/>
<path d="M3928 933 c7 -3 16 -2 19 1 4 3 -2 6 -13 5 -11 0 -14 -3 -6 -6z"/>
<path d="M3275 909 c-4 -6 -5 -12 -2 -15 2 -3 7 2 10 11 7 17 1 20 -8 4z"/>
<path d="M2485 900 c-4 -6 5 -10 19 -10 14 0 26 5 26 10 0 6 -9 10 -19 10 -11
0 -23 -4 -26 -10z"/>
<path d="M2060 854 c0 -8 5 -12 10 -9 6 4 8 11 5 16 -9 14 -15 11 -15 -7z"/>
<path d="M1855 830 c-3 -5 1 -10 9 -10 9 0 16 5 16 10 0 6 -4 10 -9 10 -6 0
-13 -4 -16 -10z"/>
<path d="M1945 820 c3 -5 8 -10 11 -10 2 0 4 5 4 10 0 6 -5 10 -11 10 -5 0 -7
-4 -4 -10z"/>
<path d="M2595 809 c-4 -6 -5 -12 -2 -15 2 -3 7 2 10 11 7 17 1 20 -8 4z"/>
<path d="M1938 793 c7 -3 16 -2 19 1 4 3 -2 6 -13 5 -11 0 -14 -3 -6 -6z"/>
<path d="M1939 757 c-7 -19 -3 -47 8 -47 7 0 13 2 13 4 0 2 3 11 6 19 3 8 -2
17 -10 20 -9 4 -16 5 -17 4z"/>
<path d="M3720 746 c0 -8 7 -17 16 -20 8 -3 13 -10 9 -15 -3 -5 -1 -12 5 -16
5 -3 10 -2 10 3 0 16 33 24 41 10 4 -7 11 -9 15 -6 3 4 -6 18 -21 32 -30 28
-75 35 -75 12z m55 -7 c11 -17 -1 -21 -15 -4 -8 9 -8 15 -2 15 6 0 14 -5 17
-11z"/>
<path d="M1834 724 c3 -9 6 -18 6 -20 0 -3 4 -3 10 1 11 7 2 35 -12 35 -6 0
-7 -7 -4 -16z"/>
<path d="M2160 730 c0 -6 7 -10 15 -10 8 0 15 2 15 4 0 2 -7 6 -15 10 -8 3
-15 1 -15 -4z"/>
<path d="M3560 688 c-1 -22 -1 -23 -15 -4 -16 21 -21 10 -6 -13 5 -7 13 -11
19 -7 6 3 13 2 17 -4 3 -5 0 -10 -7 -10 -7 0 3 -13 22 -29 19 -16 37 -28 39
-26 4 4 -58 115 -65 115 -2 0 -4 -10 -4 -22z"/>
<path d="M3700 700 c0 -5 5 -10 11 -10 5 0 7 5 4 10 -3 6 -8 10 -11 10 -2 0
-4 -4 -4 -10z"/>
<path d="M1948 693 c7 -3 16 -2 19 1 4 3 -2 6 -13 5 -11 0 -14 -3 -6 -6z"/>
<path d="M2638 670 c-9 -17 -12 -30 -7 -30 13 0 1 -40 -19 -63 -8 -9 -12 -20
-9 -24 10 -10 30 22 51 79 20 57 10 82 -16 38z"/>
<path d="M3382 693 c-10 -4 -8 -11 9 -29 22 -23 14 -35 -8 -13 -7 7 -13 7 -17
1 -3 -5 13 -25 37 -44 76 -62 87 -62 35 -1 -27 32 -28 34 -5 14 15 -14 27 -22
27 -18 0 4 -17 22 -37 41 -37 33 -41 63 -6 35 16 -13 17 -12 4 4 -14 18 -18
19 -39 10z"/>
<path d="M3460 675 c13 -14 28 -25 34 -25 6 0 4 5 -4 10 -13 9 -13 11 0 21 13
9 12 10 -2 5 -10 -3 -20 -1 -23 4 -4 6 -11 10 -17 10 -6 0 -1 -11 12 -25z"/>
<path d="M2250 686 c0 -2 11 -6 25 -8 13 -3 22 -1 19 3 -5 9 -44 13 -44 5z"/>
<path d="M3710 666 c0 -11 8 -16 28 -15 15 0 21 3 12 6 -8 3 -21 10 -27 16 -9
7 -13 5 -13 -7z"/>
<path d="M2701 655 c0 -5 4 -19 9 -30 7 -17 9 -17 9 -2 1 9 6 17 11 17 6 0 10
5 10 11 0 8 -4 8 -14 0 -11 -9 -15 -9 -19 1 -3 7 -5 9 -6 3z"/>
<path d="M3020 632 c0 -11 4 -23 9 -27 6 -3 8 4 6 16 -6 30 -15 37 -15 11z"/>
<path d="M1837 626 c-8 -19 -2 -51 9 -49 12 3 17 63 6 63 -6 0 -12 -6 -15 -14z"/>
<path d="M3180 592 c12 -23 26 -42 31 -42 12 0 -15 53 -36 70 -13 11 -12 4 5
-28z"/>
<path d="M4320 623 c8 -3 18 -10 21 -16 4 -5 13 -6 20 -2 9 6 8 10 -7 16 -10
4 -26 8 -34 8 -13 -1 -13 -1 0 -6z"/>
<path d="M3113 606 c0 -8 5 -14 11 -13 6 1 9 -7 8 -18 -3 -16 -1 -18 9 -7 10
9 11 17 3 29 -14 22 -31 27 -31 9z"/>
<path d="M3376 596 c7 -19 20 -21 30 -3 4 6 4 9 -1 5 -4 -4 -14 -3 -22 4 -11
8 -12 7 -7 -6z"/>
<path d="M4389 599 c-10 -6 -7 -9 13 -9 15 0 31 -8 37 -17 6 -12 13 -15 20 -8
14 14 -51 46 -70 34z"/>
<path d="M2715 590 c4 -6 11 -8 16 -5 14 9 11 15 -7 15 -8 0 -12 -5 -9 -10z"/>
<path d="M3020 582 c0 -12 19 -26 26 -19 2 2 -2 10 -11 17 -9 8 -15 8 -15 2z"/>
<path d="M4264 574 c-18 -14 -18 -14 6 -3 31 14 36 19 24 19 -6 0 -19 -7 -30
-16z"/>
<path d="M2996 571 c-3 -5 1 -14 8 -20 12 -10 13 -8 9 8 -6 23 -9 25 -17 12z"/>
<path d="M3165 563 c5 -16 2 -23 -8 -23 -15 0 -17 -43 -3 -57 3 -3 -2 -11 -11
-18 -11 -8 -12 -14 -5 -19 12 -7 38 32 28 42 -4 3 6 14 21 25 16 11 20 16 9
13 -13 -4 -17 -2 -13 8 3 8 -1 22 -9 33 -14 17 -15 17 -9 -4z"/>
<path d="M3406 572 c-3 -5 1 -9 9 -9 8 0 12 4 9 9 -3 4 -7 8 -9 8 -2 0 -6 -4
-9 -8z"/>
<path d="M1966 562 c-13 -12 -5 -33 17 -41 32 -12 49 -3 37 19 -10 18 -44 32
-54 22z"/>
<path d="M2464 545 c-4 -11 -11 -22 -15 -25 -4 -3 -3 -23 1 -45 7 -38 8 -38 9
-8 0 17 7 38 14 45 9 8 11 21 7 33 -8 20 -8 20 -16 0z"/>
<path d="M4205 550 c-3 -6 1 -7 9 -4 18 7 21 14 7 14 -6 0 -13 -4 -16 -10z"/>
<path d="M1735 540 c-3 -5 -1 -10 4 -10 6 0 11 5 11 10 0 6 -2 10 -4 10 -3 0
-8 -4 -11 -10z"/>
<path d="M3390 540 c0 -6 7 -10 15 -10 8 0 15 2 15 4 0 2 -7 6 -15 10 -8 3
-15 1 -15 -4z"/>
<path d="M2655 529 c-4 -6 -5 -12 -2 -15 2 -3 7 2 10 11 7 17 1 20 -8 4z"/>
<path d="M3037 533 c-8 -14 11 -53 26 -53 8 0 20 7 27 15 11 13 8 15 -16 16
l-29 1 25 8 c14 4 20 8 13 9 -6 1 -18 4 -26 7 -8 3 -17 2 -20 -3z"/>
<path d="M2693 511 c-13 -11 -23 -23 -23 -27 0 -4 5 -3 12 4 16 16 31 15 22 0
-4 -7 -3 -10 1 -5 8 7 18 47 12 47 -1 -1 -12 -9 -24 -19z"/>
<path d="M4130 510 c0 -5 5 -10 10 -10 6 0 10 5 10 10 0 6 -4 10 -10 10 -5 0
-10 -4 -10 -10z"/>
<path d="M4430 510 c0 -6 9 -10 19 -10 11 0 23 -5 26 -10 4 -6 11 -8 16 -5 5
4 9 -1 9 -9 0 -9 5 -16 11 -16 5 0 8 -4 5 -9 -6 -9 23 -25 31 -18 8 9 -10 37
-24 37 -8 0 -12 4 -9 9 3 5 0 13 -7 18 -18 15 -77 24 -77 13z"/>
<path d="M2030 500 c-13 -8 -13 -10 2 -10 9 0 20 5 23 10 8 13 -5 13 -25 0z"/>
<path d="M2424 503 c5 -8 1 -13 -9 -13 -18 0 -16 -21 3 -28 17 -5 27 27 12 41
-10 9 -11 9 -6 0z"/>
<path d="M2736 501 c-9 -15 4 -40 19 -35 9 4 11 -2 8 -20 -3 -16 -1 -26 6 -26
6 0 11 -7 11 -16 0 -14 -3 -14 -15 -4 -12 10 -18 10 -29 1 -12 -10 -19 -8 -34
7 -16 16 -22 17 -36 6 -10 -7 -15 -17 -12 -22 3 -6 0 -12 -6 -15 -17 -6 -9
-14 24 -22 19 -5 27 -3 30 9 2 12 7 13 18 5 10 -7 11 -12 4 -15 -9 -4 -9 -11
-1 -29 9 -18 15 -21 29 -14 10 5 18 17 17 27 0 10 -3 12 -6 5 -7 -20 -23 -15
-23 6 0 28 33 20 40 -10 4 -15 9 -19 13 -12 4 6 15 10 25 8 19 -3 18 -24 -4
-67 -14 -26 -13 -28 5 -25 11 2 32 15 47 30 15 15 32 27 39 27 24 0 25 29 2
42 -12 6 -24 10 -27 9 -2 -1 -6 2 -8 8 -2 6 6 11 18 11 14 0 21 6 19 18 -3 24
11 53 23 46 7 -4 7 -9 0 -13 -7 -4 -6 -12 2 -23 10 -14 12 -12 13 18 1 27 -3
34 -17 34 -10 0 -21 -6 -23 -12 -4 -10 -8 -9 -16 2 -9 13 -11 13 -11 -1 0 -9
-10 -24 -22 -35 -14 -12 -18 -13 -10 -3 6 9 9 19 5 22 -3 4 -1 7 5 7 7 0 12 5
12 12 0 6 -12 1 -27 -13 -14 -13 -23 -18 -19 -11 10 17 -11 42 -30 35 -9 -3
-14 2 -14 15 0 12 -4 24 -10 27 -5 3 -10 1 -10 -4 0 -6 -4 -11 -10 -11 -5 0
-7 7 -4 15 7 16 -1 21 -10 6z"/>
<path d="M3520 495 c0 -8 8 -15 18 -16 11 -1 8 -4 -8 -8 -14 -5 -31 -3 -40 3
-13 10 -13 9 -1 -6 7 -10 10 -18 5 -18 -5 0 -2 -5 6 -10 8 -5 31 -9 50 -9 35
1 35 1 6 8 l-30 6 28 13 c15 6 38 12 51 12 14 0 25 5 25 10 0 6 -7 10 -15 10
-8 0 -15 5 -15 10 0 6 -18 10 -40 10 -29 0 -40 -4 -40 -15z"/>
<path d="M4200 480 c-9 -6 -10 -10 -3 -10 6 0 15 5 18 10 8 12 4 12 -15 0z"/>
<path d="M2345 447 c-22 -13 -49 -23 -60 -24 -11 -1 -33 -7 -50 -14 -16 -7
-34 -11 -38 -10 -4 0 -17 -4 -29 -10 -11 -6 -41 -12 -67 -13 -26 -1 -53 -6
-59 -10 -7 -4 -12 -4 -11 1 4 22 -3 23 -21 2 -11 -14 -19 -18 -20 -11 0 21
-27 43 -55 45 -14 1 -30 9 -35 17 -5 8 -10 13 -11 10 0 -3 -2 -13 -4 -22 -4
-21 26 -49 54 -51 11 -1 21 -5 21 -10 0 -4 5 -5 10 -2 6 3 10 2 10 -4 0 -5 19
-13 43 -17 59 -11 70 -11 86 1 11 7 13 7 7 -3 -6 -10 0 -12 31 -7 39 7 125 44
131 58 2 4 12 7 23 7 10 0 19 5 19 10 0 6 5 10 11 10 6 0 17 7 25 15 17 17 44
20 44 5 0 -5 4 -10 9 -10 12 0 2 37 -13 49 -8 7 -24 3 -51 -12z"/>
<path d="M4395 460 c-3 -5 0 -11 7 -11 7 -1 27 -3 43 -5 20 -2 25 0 15 5 -30
17 -58 22 -65 11z"/>
<path d="M2685 450 c-3 -5 -2 -10 4 -10 5 0 13 5 16 10 3 6 2 10 -4 10 -5 0
-13 -4 -16 -10z"/>
<path d="M2966 445 c-3 -8 -1 -15 4 -15 6 0 10 7 10 15 0 8 -2 15 -4 15 -2 0
-6 -7 -10 -15z"/>
<path d="M3000 441 c0 -5 9 -11 20 -14 23 -6 27 -35 7 -43 -14 -5 -16 -31 -4
-51 4 -6 3 -14 -3 -18 -5 -3 -10 -4 -10 -1 0 3 -19 -13 -42 -34 -23 -22 -44
-40 -48 -40 -20 0 -16 -41 5 -62 13 -12 20 -28 17 -36 -3 -10 0 -13 9 -10 8 3
13 15 12 27 -4 28 15 64 28 56 5 -4 9 -1 9 4 0 6 7 11 15 11 17 0 20 16 5 25
-14 9 9 53 32 61 10 3 16 9 13 14 -8 13 34 23 48 11 8 -6 18 -6 27 -1 8 6 11
10 7 10 -5 0 -1 7 7 16 24 23 20 35 -8 24 -18 -7 -28 -5 -37 6 -7 8 -18 13
-26 10 -7 -3 -21 3 -30 13 -21 21 -53 34 -53 22z"/>
<path d="M3457 418 l-27 -10 22 -18 c39 -30 65 -34 71 -9 3 11 10 18 16 15 5
-4 12 -3 15 2 2 4 -7 9 -22 10 -15 1 -28 7 -30 12 -4 12 -8 12 -45 -2z"/>
<path d="M2960 402 c0 -5 7 -9 15 -9 8 0 12 4 9 9 -3 4 -9 8 -15 8 -5 0 -9 -4
-9 -8z"/>
<path d="M3566 393 c-3 -7 -13 -13 -22 -13 -11 0 -14 -5 -10 -16 3 -9 6 -20 6
-25 0 -5 8 -1 18 9 11 9 17 20 15 23 -1 4 4 9 12 13 8 3 15 9 15 14 0 14 -29
10 -34 -5z"/>
<path d="M4352 394 c-12 -13 -9 -14 25 -8 59 10 75 23 28 23 -23 0 -46 -6 -53
-15z"/>
<path d="M2393 386 c4 -11 1 -13 -11 -9 -13 5 -14 3 -5 -7 6 -7 16 -9 22 -6
14 9 14 36 0 36 -6 0 -9 -7 -6 -14z"/>
<path d="M3166 351 c-3 -5 3 -11 13 -14 12 -3 22 1 25 9 6 16 -29 20 -38 5z"/>
<path d="M3305 340 c3 -5 0 -10 -7 -10 -8 0 -6 -5 5 -11 9 -5 17 -17 17 -24 0
-8 5 -15 10 -15 6 0 10 -7 10 -15 0 -8 6 -15 14 -15 7 0 19 -6 25 -14 10 -12
8 -13 -11 -9 -23 6 -23 6 -3 -14 26 -25 79 -20 72 8 -4 14 0 19 16 20 12 0 16
3 10 6 -7 2 -15 4 -18 3 -4 -1 -21 10 -39 24 -18 14 -45 28 -60 32 -27 6 -46
24 -26 24 6 0 8 5 5 10 -3 6 -11 10 -16 10 -6 0 -7 -4 -4 -10z"/>
<path d="M4528 343 c6 -2 18 -2 25 0 6 3 1 5 -13 5 -14 0 -19 -2 -12 -5z"/>
<path d="M2595 330 c-4 -6 -10 -8 -15 -5 -4 3 -6 -4 -3 -15 3 -11 9 -18 13
-15 9 6 7 -11 -5 -37 -4 -10 -11 -15 -16 -12 -5 3 -9 0 -9 -5 0 -19 28 -12 44
11 9 12 16 18 16 13 0 -19 -16 -34 -45 -45 l-30 -12 28 -15 c16 -8 35 -12 43
-9 8 3 14 2 14 -3 0 -5 26 -12 58 -17 78 -11 77 -11 76 9 -1 9 2 17 8 17 5 0
6 5 3 10 -5 8 -11 8 -19 1 -9 -8 -18 -6 -32 4 -10 8 -29 15 -41 15 -13 0 -23
5 -23 10 0 6 10 15 23 20 12 5 17 9 10 9 -7 1 -10 8 -6 18 5 13 2 15 -11 10
-14 -5 -17 -2 -14 16 2 16 -2 22 -14 21 -10 -1 -18 2 -18 7 0 12 -27 11 -35
-1z"/>
<path d="M2687 323 c-10 -9 -9 -23 1 -23 5 0 9 7 9 15 0 17 -1 18 -10 8z"/>
<path d="M4435 321 c-33 -7 -23 -19 13 -16 16 1 21 -3 18 -12 -4 -10 -1 -11
12 -5 9 5 24 7 32 5 13 -4 13 -3 0 7 -30 22 -46 26 -75 21z"/>
<path d="M3475 311 c19 -17 55 -23 55 -9 0 8 -13 15 -32 16 -20 2 -29 -1 -23
-7z"/>
<path d="M2330 293 c-8 -13 -13 -14 -16 -5 -3 6 -10 12 -15 12 -6 0 -7 -4 -4
-10 3 -5 2 -17 -3 -25 -7 -13 -10 -11 -21 11 -6 15 -13 25 -14 23 -2 -2 -9
-13 -17 -23 -10 -13 -10 -17 -2 -12 7 4 12 2 12 -7 0 -24 -28 -28 -35 -6 -4
10 -10 17 -15 14 -5 -3 -10 3 -13 12 -3 14 -6 11 -12 -10 -4 -15 -12 -26 -19
-24 -6 2 -16 -3 -22 -11 -10 -14 -13 -12 -19 8 -7 22 -9 19 -26 -26 -11 -27
-19 -52 -19 -56 0 -13 28 -9 33 5 4 10 6 10 6 0 1 -14 33 -18 45 -5 4 4 13 7
19 7 6 0 14 11 18 25 5 17 7 19 8 7 1 -19 21 -18 68 5 20 10 37 41 34 61 -1 5
3 5 9 2 12 -7 50 21 50 37 0 14 -19 9 -30 -9z m-130 -58 c0 -8 -4 -15 -10 -15
-5 0 -7 7 -4 15 4 8 8 15 10 15 2 0 4 -7 4 -15z m-36 -30 c-4 -8 -8 -15 -10
-15 -2 0 -4 7 -4 15 0 8 4 15 10 15 5 0 7 -7 4 -15z"/>
<path d="M1976 275 c-9 -14 -20 -24 -24 -21 -4 2 -15 -13 -24 -34 -14 -33 -14
-39 -2 -44 13 -5 27 16 34 49 1 6 7 17 14 25 13 15 28 50 22 50 -2 0 -11 -11
-20 -25z"/>
<path d="M2750 290 c0 -5 5 -10 10 -10 6 0 10 5 10 10 0 6 -4 10 -10 10 -5 0
-10 -4 -10 -10z"/>
<path d="M3864 284 c21 -12 31 -13 40 -4 8 8 7 10 -5 5 -10 -4 -20 -2 -24 4
-3 6 -14 11 -23 11 -11 -1 -7 -6 12 -16z"/>
<path d="M4572 291 c-11 -6 -8 -12 10 -27 13 -11 22 -27 20 -36 -2 -10 1 -18
7 -18 17 0 13 42 -7 67 -11 15 -22 20 -30 14z"/>
<path d="M1849 273 c-13 -16 -12 -17 4 -4 16 13 21 21 13 21 -2 0 -10 -8 -17
-17z"/>
<path d="M4130 270 c0 -5 5 -10 11 -10 5 0 7 5 4 10 -3 6 -8 10 -11 10 -2 0
-4 -4 -4 -10z"/>
<path d="M2005 258 c-9 -23 2 -38 26 -35 29 5 44 23 25 30 -8 3 -19 1 -22 -5
-5 -8 -10 -5 -15 8 -6 17 -8 17 -14 2z"/>
<path d="M2527 263 c-4 -3 -25 -6 -46 -5 -53 2 -61 -13 -13 -25 48 -12 72 -6
72 18 0 20 -3 23 -13 12z"/>
<path d="M2885 260 c-3 -5 -1 -10 4 -10 6 0 11 5 11 10 0 6 -2 10 -4 10 -3 0
-8 -4 -11 -10z"/>
<path d="M2754 241 c3 -5 -4 -11 -16 -14 -12 -4 -19 -9 -15 -13 9 -10 58 17
51 28 -3 4 -10 8 -15 8 -6 0 -8 -4 -5 -9z"/>
<path d="M3643 232 c0 -12 5 -22 9 -22 11 0 10 12 -2 30 -7 12 -9 10 -7 -8z"/>
<path d="M3700 240 c0 -5 5 -10 10 -10 6 0 10 5 10 10 0 6 -4 10 -10 10 -5 0
-10 -4 -10 -10z"/>
<path d="M3250 219 c14 -11 21 -22 15 -25 -37 -16 -40 -23 -20 -38 11 -9 31
-16 45 -16 14 0 36 -3 48 -7 22 -5 23 -4 10 16 -11 18 -11 23 1 31 20 12 -3
40 -33 41 -20 0 -21 1 -1 9 14 6 5 9 -35 9 l-55 1 25 -21z"/>
<path d="M2065 220 c-3 -5 -1 -10 4 -10 6 0 11 5 11 10 0 6 -2 10 -4 10 -3 0
-8 -4 -11 -10z"/>
<path d="M3610 209 c0 -5 5 -7 10 -4 6 3 10 8 10 11 0 2 -4 4 -10 4 -5 0 -10
-5 -10 -11z"/>
<path d="M3819 201 l25 -19 -25 -4 c-21 -3 -24 -8 -23 -40 1 -21 -2 -38 -7
-38 -5 0 1 -11 13 -25 23 -27 49 -35 27 -9 -19 23 -20 44 -2 37 11 -4 12 -8 2
-13 -8 -6 -5 -11 10 -19 15 -8 21 -9 21 -1 0 6 4 9 9 5 12 -7 23 28 15 49 -3
9 -10 16 -16 16 -5 0 -6 5 -2 11 4 7 -1 9 -17 5 -20 -4 -20 -4 3 6 l26 11 -34
24 c-41 27 -59 31 -25 4z"/>
<path d="M4466 212 c-2 -4 4 -8 14 -8 10 0 16 4 14 8 -3 4 -9 8 -14 8 -5 0
-11 -4 -14 -8z"/>
<path d="M2026 195 c-3 -9 -10 -14 -15 -11 -5 3 -12 -1 -15 -10 -8 -21 -8 -24
3 -24 11 0 44 50 38 56 -2 3 -7 -2 -11 -11z"/>
<path d="M3676 196 c3 -8 13 -17 22 -21 13 -5 13 -2 -3 15 -21 24 -26 25 -19
6z"/>
<path d="M3744 185 c1 -7 8 -20 15 -29 11 -13 11 -16 0 -16 -9 -1 -8 -4 4 -11
24 -14 26 -11 15 27 -8 31 -38 56 -34 29z"/>
<path d="M3946 182 c-2 -4 4 -8 15 -8 10 0 19 4 19 8 0 4 -6 8 -14 8 -8 0 -17
-4 -20 -8z"/>
<path d="M4480 170 c-22 -5 -23 -7 -7 -13 10 -4 26 -3 34 2 21 11 4 19 -27 11z"/>
<path d="M4230 159 c0 -5 5 -7 10 -4 6 3 10 8 10 11 0 2 -4 4 -10 4 -5 0 -10
-5 -10 -11z"/>
<path d="M3648 153 c6 -2 18 -2 25 0 6 3 1 5 -13 5 -14 0 -19 -2 -12 -5z"/>
<path d="M3933 144 c-14 -15 -3 -27 14 -16 7 4 9 13 5 19 -5 8 -11 7 -19 -3z"/>
<path d="M2560 140 c20 -13 33 -13 25 0 -3 6 -14 10 -23 10 -15 0 -15 -2 -2
-10z"/>
<path d="M3700 130 c-10 -6 -11 -10 -2 -10 6 0 12 -5 12 -10 0 -7 -6 -7 -20 0
-11 6 -20 7 -20 3 0 -4 -5 -2 -12 5 -15 15 -64 16 -73 2 -4 -6 8 -15 25 -21
21 -8 29 -16 26 -26 -3 -8 -6 -16 -6 -19 0 -2 -7 -1 -15 2 -21 9 -19 25 3 17
13 -4 14 -3 6 6 -12 13 -47 4 -38 -10 3 -5 0 -9 -7 -9 -7 0 -3 -10 9 -23 12
-13 20 -26 17 -29 -4 -3 59 -6 139 -5 80 0 143 3 141 7 -2 4 13 6 35 5 l39 -2
-26 20 c-23 19 -41 22 -85 18 -8 -1 -5 -7 6 -16 33 -25 10 -17 -59 21 -63 35
-87 54 -66 54 6 0 8 7 5 15 -7 17 -13 18 -34 5z m30 -83 c0 -11 -7 -18 -17
-16 -34 3 -44 -1 -37 -13 4 -7 3 -9 -1 -5 -13 11 -15 37 -4 37 6 0 7 5 3 11
-4 8 0 8 15 0 19 -10 21 -9 21 11 0 19 2 20 10 8 5 -8 10 -23 10 -33z m-89
-24 c13 -15 12 -15 -11 -3 -34 17 -36 20 -18 20 9 0 22 -7 29 -17z"/>
<path d="M2178 118 c-27 -9 -31 -19 -31 -70 0 -10 -4 -18 -10 -18 -5 0 -4 -7
3 -15 20 -24 39 -18 35 10 -2 20 2 25 19 25 17 0 18 -2 6 -10 -12 -8 -10 -10
8 -10 13 0 20 -4 17 -10 -3 -6 0 -11 7 -12 38 -4 44 -4 51 0 4 2 3 10 -3 17
-11 13 -4 45 10 45 4 0 10 6 13 14 4 10 -3 13 -24 11 -16 -1 -32 -5 -36 -9
-10 -10 -25 -7 -18 4 3 6 -1 10 -9 10 -10 0 -13 6 -10 15 4 8 5 15 3 14 -2 0
-16 -5 -31 -11z m29 -44 c-3 -3 -12 -4 -19 -1 -8 3 -5 6 6 6 11 1 17 -2 13 -5z"/>
<path d="M2481 120 c-31 -19 140 -117 179 -102 11 5 8 9 -12 16 -16 5 -28 13
-28 18 0 4 -5 8 -11 8 -5 0 -27 13 -47 29 -44 34 -64 42 -81 31z"/>
<path d="M4483 119 c-18 -5 -33 -12 -33 -15 0 -8 74 7 85 17 11 11 -9 10 -52
-2z"/>
<path d="M3985 94 c8 -16 15 -35 15 -41 0 -7 4 -13 9 -13 14 0 0 48 -20 66
-19 17 -19 17 -4 -12z"/>
<path d="M3920 85 c0 -10 29 -24 34 -17 3 6 -3 12 -14 15 -11 3 -20 4 -20 2z"/>
<path d="M4414 63 c-28 -26 -43 -31 -24 -8 18 22 4 31 -16 11 -9 -9 -14 -20
-11 -23 4 -3 2 -14 -4 -24 -14 -27 8 -25 32 3 13 16 17 18 13 6 -5 -15 -3 -15
19 -5 14 6 23 15 21 18 -2 4 5 5 16 2 27 -7 37 -25 14 -23 -31 4 -48 0 -40 -7
14 -14 41 -11 61 6 35 31 42 32 93 6 52 -26 92 -32 92 -15 0 6 -6 10 -14 10
-8 0 -33 9 -57 20 -37 16 -40 20 -19 20 24 1 25 1 5 16 -32 24 -150 16 -181
-13z"/>
<path d="M2902 54 c-18 -12 -20 -19 -12 -29 8 -10 7 -14 -7 -18 -11 -3 -6 -5
12 -6 26 -1 32 4 41 34 13 40 3 45 -34 19z"/>
<path d="M2372 43 c-6 -2 -10 -8 -7 -13 3 -4 -2 -10 -10 -14 -8 -3 -15 -1 -15
4 0 5 -7 7 -15 4 -39 -15 -5 -22 107 -22 77 0 117 3 107 9 -8 5 -22 9 -31 9
-10 0 -18 4 -18 9 0 5 -7 12 -16 15 -12 4 -15 2 -10 -9 7 -19 -29 -21 -38 -2
-5 9 -7 9 -12 0 -3 -7 -12 -9 -20 -6 -7 3 -11 9 -8 14 6 10 5 10 -14 2z"/>
<path d="M4227 36 c-4 -11 -3 -24 3 -30 14 -14 18 -5 10 24 -5 23 -7 23 -13 6z"/>
<path d="M3087 33 c-4 -3 -7 -11 -7 -17 0 -6 5 -5 12 2 6 6 9 14 7 17 -3 3 -9
2 -12 -2z"/>
</g>
</svg>
