<?xml version="1.0" encoding="utf-8"?>
<!-- Generator: Adobe Illustrator 24.0.2, SVG Export Plug-In . SVG Version: 6.00 Build 0)  -->
<svg version="1.1" id="Capa_1" xmlns="http://www.w3.org/2000/svg" xmlns:xlink="http://www.w3.org/1999/xlink" x="0px" y="0px"
	 viewBox="0 0 500 750" style="enable-background:new 0 0 500 750;" xml:space="preserve">
<style type="text/css">
	.st0{fill:#FFA75A;}
</style>
<path id="HUESO_29_" class="st0" d="M-1.4,584c0,0,64.9,164.3,251.2,164.1s208.6-185.2,208.6-185.2s17.8-73.8-41.4-156.4
	c-12.1-16.8-12.7-41.9-1.6-59.7c9.7-15.8,19.1-32.3,20.4-34.8c14.8-30.1,25-64.5,23.9-100.1C458,162.4,434.7,117,405,83.4
	c-34.5-39.1-78.6-65.5-125-74.7c-47.2-9.4-95.8-1.3-141.6,15.6C111.7,34.1,88,43,62.7,67C35,93.3,4.5,147.9,0,192L-1.4,584z"/>
</svg>
